<svg xmlns="http://www.w3.org/2000/svg" width="22" height="31"><path data-name="Forma 1" d="M21.89 17.3l-2.509-3.774a.635.635 0 00-1.062 0L15.81 17.3a.667.667 0 00-.036.674.64.64 0 00.567.348h1.238a6.853 6.853 0 01-5.083 4.613V8.466h2a1.018 1.018 0 000-2.036h-1.028a3.726 3.726 0 001.176-2.717 3.64 3.64 0 10-7.279 0A3.73 3.73 0 008.541 6.43H7.514a1.018 1.018 0 000 2.036h2v14.465a6.852 6.852 0 01-5.084-4.613h1.239a.642.642 0 00.567-.348.665.665 0 00-.037-.674L3.69 13.522a.634.634 0 00-1.061 0L.11 17.3a.665.665 0 00-.036.674.64.64 0 00.567.348H1.99a11.077 11.077 0 006.78 8.238l-.249.312a.664.664 0 00-.038.774l1.981 3.058a.628.628 0 001.071 0l1.981-3.058a.663.663 0 00-.038-.774l-.248-.312a11.075 11.075 0 006.779-8.238h1.35a.64.64 0 00.567-.348.667.667 0 00-.036-.674zM11 2.034a1.679 1.679 0 11-1.645 1.679A1.664 1.664 0 0111 2.034z" fill="#e74c3c" fill-rule="evenodd"/></svg>